<?xml version="1.0" encoding="iso-8859-1"?>
<!-- Uploaded to: SVG Repo, www.svgrepo.com, Generator: SVG Repo Mixer Tools -->
<svg version="1.1" id="Layer_1" xmlns="http://www.w3.org/2000/svg" xmlns:xlink="http://www.w3.org/1999/xlink" 
	 viewBox="0 0 512 512" xml:space="preserve">
<circle style="fill:#B5F1F4;" cx="256" cy="256" r="256"/>
<path style="fill:#4CDBC4;" d="M269.172,511.667C404.435,504.811,512,392.968,512,256c0-5.073-0.164-10.109-0.455-15.11
	L363.305,91.881l-55.586,116.426L148.825,391.801L269.172,511.667z"/>
<path style="fill:#324A5E;" d="M347.551,398.222H164.45c-12.276,0-22.228-9.952-22.228-22.228V107.561
	c0-12.276,9.952-22.228,22.228-22.228H347.55c12.276,0,22.228,9.952,22.228,22.228v268.433
	C369.78,388.27,359.827,398.222,347.551,398.222z"/>
<path style="fill:#2B3B4E;" d="M347.551,85.333h-92.124v312.889h92.124c12.276,0,22.228-9.952,22.228-22.228V107.561
	C369.78,95.285,359.827,85.333,347.551,85.333z"/>
<rect x="151.411" y="105.589" style="fill:#FFD15D;" width="209.161" height="256"/>
<rect x="255.431" y="105.589" style="fill:#F9B54C;" width="105.158" height="256"/>
<circle style="fill:#C1321F;" cx="355.556" cy="241.778" r="99.556"/>
<path style="fill:#FC6F58;" d="M455.111,241.778c0-54.982-44.573-99.556-99.556-99.556v99.556H455.111z"/>
</svg>